HIERARCHY
ROOT Hips
{
   OFFSET 0.00000 0.00000 0.00000
   CHANNELS 6 Xposition Yposition Zposition Zrotation Xrotation Yrotation
   JOINT Spine
   {
      OFFSET 0.000000 11.890501 0.000000
      CHANNELS 3 Zrotation Xrotation Yrotation
      JOINT Spine1
      {
         OFFSET -0.000000 25.657401 0.127660
         CHANNELS 3 Zrotation Xrotation Yrotation
         JOINT HEad
         {
            OFFSET 0.000000 8.734161 0.011340
            CHANNELS 3 Zrotation Xrotation Yrotation
            End Site
            {
               OFFSET -0.290000 12.774200 2.513950
            }
         }
         JOINT LeftShoulder1
         {
            OFFSET 8.990000 -0.362250 -0.220000
            CHANNELS 3 Zrotation Xrotation Yrotation
            JOINT LeftArm
            {
               OFFSET 10.282700 -0.003380 0.322120
               CHANNELS 3 Zrotation Xrotation Yrotation
               JOINT LeftForeArm
               {
                  OFFSET 32.766900 0.099140 -1.424340
                  CHANNELS 3 Zrotation Xrotation Yrotation
                  JOINT LeftHand
                  {
                     OFFSET 27.564301 0.085360 1.022160
                     CHANNELS 3 Zrotation Xrotation Yrotation
                     End Site
                     {
                        OFFSET 16.744301 -0.600000 1.502910
                     }
                  }
               }
            }
         }
         JOINT RightShoulder
         {
            OFFSET -8.990000 -0.362250 -0.220000
            CHANNELS 3 Zrotation Xrotation Yrotation
            JOINT RightArm
            {
               OFFSET -10.282700 -0.003380 0.322120
               CHANNELS 3 Zrotation Xrotation Yrotation
               JOINT RightForeArm
               {
                  OFFSET -32.897098 0.099140 -1.424340
                  CHANNELS 3 Zrotation Xrotation Yrotation
                  JOINT RightHand
                  {
                     OFFSET -27.492101 0.085360 1.022160
                     CHANNELS 3 Zrotation Xrotation Yrotation
                     End Site
                     {
                        OFFSET -16.631201 -0.600000 1.502910
                     }
                  }
               }
            }
         }
      }
   }
   JOINT LeftUpLeg
   {
      OFFSET 8.945800 -8.667070 0.101650
      CHANNELS 3 Zrotation Xrotation Yrotation
      JOINT LeftLeg
      {
         OFFSET 0.000000 -44.422697 1.372700
         CHANNELS 3 Zrotation Xrotation Yrotation
         JOINT LeftFoot
         {
            OFFSET -0.253550 -42.092399 -1.460590
            CHANNELS 3 Zrotation Xrotation Yrotation
            JOINT LeftToes
            {
               OFFSET -0.040000 -4.415090 8.499099
               CHANNELS 3 Zrotation Xrotation Yrotation
               End Site
               {
                  OFFSET 0.080000 -0.047450 9.779790
               }
            }
         }
      }
   }
   JOINT RightUpLeg
   {
      OFFSET -8.945800 -8.667070 0.101650
      CHANNELS 3 Zrotation Xrotation Yrotation
      JOINT RightLeg
      {
         OFFSET 0.000000 -44.422697 1.372700
         CHANNELS 3 Zrotation Xrotation Yrotation
         JOINT RightFoot
         {
            OFFSET 0.253550 -42.092399 -1.460590
            CHANNELS 3 Zrotation Xrotation Yrotation
            JOINT RightToes
            {
               OFFSET 0.040000 -4.415090 8.499099
               CHANNELS 3 Zrotation Xrotation Yrotation
               End Site
               {
                  OFFSET -0.080000 -0.137450 9.779790
               }
            }
         }
      }
   }
}
MOTION
Frames: 13
Frame Time: 0.016670
-26.446626 59.141330 -22.443339 49.047862 48.180260 143.170792 41.256853 50.811761 25.778259 17.402893 9.771785 -69.285494 -0.623992 29.306023 -20.054279 -30.922957 -67.349108 1.005111 -10.305402 33.385309 -57.461849 -11.373764 15.031073 -53.041429 -39.743587 -64.222554 -99.984441 -64.810763 70.610011 58.166280 106.346080 -46.882876 155.752410 -29.117414 26.422025 57.469362 -9.162224 84.006033 -21.111310 0.680393 7.856589 -7.651599 10.064117 33.645348 57.536120 -43.057041 46.460883 1.254671 10.825863 26.740495 -77.956733 -62.560797 56.185003 69.454390 53.192929 8.049247 47.405249 18.749501 22.248076 107.330426 134.826555 -88.306799 50.127824
-26.582834 58.006367 -22.245061 45.019310 48.096423 143.677578 41.488386 53.391944 34.923915 12.439494 11.165985 -68.623238 0.343326 23.957141 -23.588241 -30.973228 -64.933399 -6.866294 -9.225027 33.862538 -51.749061 0.733596 13.082557 -58.434215 -48.493592 -69.901119 -103.975621 -75.728623 65.127589 63.296285 111.702676 -52.356935 153.094729 -36.873599 24.051946 50.189582 -2.440312 70.339788 -19.672181 -1.209580 4.908517 -9.823876 8.741324 35.651323 54.421844 -41.523776 46.949119 -0.692719 7.640004 25.815675 -79.966933 -61.164720 55.455703 68.368288 51.417794 7.821731 47.175372 22.615958 23.449390 109.006828 128.754421 -88.527277 50.539725
-26.626944 56.521973 -21.832797 42.349802 49.345494 145.641667 45.114311 50.723799 44.332005 7.612504 7.971324 -67.929366 2.500815 17.691249 -28.441037 -36.418538 -61.324737 -3.414367 -6.567603 46.597695 -53.546296 12.762311 7.528112 -59.440718 -57.262930 -72.359195 -111.646901 -75.875178 66.133409 57.900422 104.313156 -53.920389 138.387938 -42.003119 23.693515 38.100810 -4.228588 71.992981 -2.510684 -3.431064 1.763557 -12.123252 7.399209 38.124139 52.444644 -38.223265 49.413034 0.180356 3.810707 24.369546 -81.017013 -61.676929 54.278321 68.575898 50.509444 9.260722 47.184221 20.224858 23.640359 111.162531 127.652315 -88.823981 50.247776
-26.498510 55.005921 -21.352586 38.088219 48.252124 149.200974 45.255396 53.506831 53.664059 1.985995 5.567195 -69.107383 4.254370 11.365043 -34.005716 -39.048851 -57.467415 -11.771162 -7.990149 50.891627 -49.299103 19.156937 4.495685 -58.222138 -61.844481 -71.884565 -117.136597 -75.091407 65.708462 49.728411 97.362263 -55.303816 129.159437 -41.490227 23.365263 22.430077 15.033858 52.273449 -3.171823 -6.031830 -2.393161 -14.278685 6.698478 40.230470 51.472821 -36.392751 50.520273 0.945468 -1.009533 22.413192 -80.901767 -58.888648 53.045370 66.860715 49.962366 7.579504 46.334118 18.689846 23.623666 113.417525 124.574673 -88.030354 50.378505
-26.237762 53.545226 -20.981605 34.320147 46.889778 153.522230 45.036030 55.914698 62.855028 -2.789070 5.060346 -70.947579 4.590183 7.391394 -39.152239 -43.815172 -58.102766 -19.391313 -9.166887 54.323828 -48.142708 23.983557 2.581711 -55.015207 -64.238182 -71.191096 -119.240281 -72.568643 62.366976 42.246236 89.117979 -59.498167 118.073152 -30.726368 23.598380 7.145505 -4.487890 71.993302 16.676991 -8.711414 -6.986702 -16.943888 5.594420 43.021531 50.732716 -35.215574 51.494808 1.721695 -6.118335 20.324968 -79.881753 -54.745950 50.664660 64.198908 51.327693 5.765708 45.130728 16.173162 22.281390 115.414651 122.287816 -86.967754 50.119850
-25.793242 51.713638 -20.459768 27.399208 46.677082 158.183206 45.761933 60.377691 70.552104 -7.374793 5.329404 -74.328605 5.523334 4.279669 -43.926487 -49.800876 -57.964803 -22.816189 -11.617908 58.473174 -47.287449 26.657427 2.058218 -57.466111 -66.217762 -68.658428 -119.757914 -68.057262 63.160303 32.894847 83.848277 -63.541591 111.621076 -23.879004 17.418613 -3.226195 1.007658 61.928048 21.313643 -11.384698 -11.101732 -19.126543 2.363381 42.990099 48.711297 -34.498046 53.062801 1.072554 -10.470583 18.586092 -78.938484 -51.884347 48.079119 62.824203 51.654774 6.114642 43.101851 15.788291 20.474274 116.646544 119.497096 -85.828990 49.615174
-25.353155 49.583892 -19.586602 23.355603 47.168573 162.994815 44.856803 62.379305 76.506520 -3.901352 5.093961 -78.606742 7.970588 4.355960 -47.304876 -54.239277 -57.203582 -22.277608 -14.639182 63.664473 -48.395705 18.860999 2.920678 -64.736717 -66.957601 -58.260462 -119.964322 -60.831973 64.767590 24.545934 82.979032 -64.454494 110.974154 -22.751983 5.579066 -4.867599 -15.330375 62.793884 31.223469 -13.513801 -11.986639 -19.782634 -2.331646 41.978274 46.844678 -34.651848 54.376748 0.225487 -15.547751 16.438969 -77.590348 -50.174583 45.850910 61.626167 53.277805 8.881648 40.602562 16.699731 19.037730 117.492996 117.838904 -83.695970 47.541631
-24.931404 47.782687 -18.664378 22.067069 47.235116 165.921332 40.237163 65.845052 82.145797 -1.342401 4.709928 -81.607134 7.956601 4.394779 -48.545870 -56.766440 -57.413443 -18.849688 -14.744338 63.741648 -46.852519 14.618113 6.984228 -70.613781 -61.927099 -62.972008 -108.122782 -53.358855 65.889510 17.639418 88.706296 -63.088804 115.640676 -24.954048 -7.459358 -0.654138 -7.246044 59.253175 15.192658 -14.149570 -13.491727 -19.651115 -5.421058 43.066446 46.437715 -34.228581 54.399294 0.243878 -21.815749 14.613682 -75.362579 -49.819642 46.519203 59.776695 53.051572 9.079855 37.336782 17.483464 17.128832 117.677083 115.609763 -82.262177 45.853331
-24.673171 46.653399 -17.814449 19.439389 46.348209 168.512078 37.280883 68.115195 87.493999 -1.659132 2.904000 -83.205282 6.052886 5.200272 -47.563965 -58.015080 -58.847544 -15.223254 -15.816399 65.697991 -46.605191 4.658899 10.360217 -74.145747 -68.897826 -43.797772 -110.752569 -47.015037 63.110395 13.035541 99.963766 -61.646275 122.248064 -27.635746 -17.389867 9.271122 -18.677217 50.367738 30.295031 -13.569077 -16.024696 -18.069747 -7.602496 40.581511 44.575911 -34.842376 53.267313 -1.877190 -27.018941 13.320407 -72.719173 -49.040345 47.040449 57.396511 52.938085 9.009609 33.200989 19.040445 14.098707 116.526989 112.816755 -82.004740 44.566465
-24.510898 46.106419 -16.914767 21.427106 47.332757 166.877217 32.833225 70.462014 87.597456 1.250401 1.736218 -86.931663 3.645570 4.403888 -45.155091 -56.282442 -51.814662 -18.693864 -18.185785 51.592537 -48.432212 2.697736 11.304153 -69.436133 -67.357263 -45.255249 -103.770012 -33.949110 64.564358 7.796969 105.946022 -58.076231 136.923723 -25.525611 -20.751945 20.717974 -17.610480 53.239221 12.623714 -9.706419 -14.806296 -17.309180 -11.384196 41.571093 40.924468 -35.257915 52.263873 -5.997058 -29.446066 13.224047 -70.652713 -49.448336 48.187732 55.244052 53.386295 10.382318 29.325308 19.028608 12.337590 115.309740 109.827714 -82.493406 43.027026
-24.246082 45.952343 -16.126417 22.956799 48.228399 165.049663 29.546657 72.651452 86.319760 0.581670 -0.084364 -89.529382 2.957720 5.088493 -41.478489 -53.961636 -53.653865 -16.931366 -17.171318 51.458806 -46.759414 5.313637 9.892346 -70.399381 -70.855727 -38.245002 -105.030073 -36.514697 60.042936 12.282838 115.942475 -54.191721 146.985794 -22.720930 -16.771905 28.323128 -16.749475 36.404386 31.612233 -8.474051 -13.646162 -16.459996 -13.016592 39.644528 38.658253 -34.717435 50.629269 -8.305488 -31.001686 13.113904 -67.876057 -48.146441 47.925344 54.812340 52.629435 13.859560 26.126647 18.101895 12.611809 114.143847 106.849704 -83.025191 41.089837
-24.107649 46.263918 -15.539932 24.379991 49.176611 162.713821 25.515809 75.289025 83.178979 3.970933 -0.320095 -91.460700 3.110735 6.860703 -36.807545 -50.952129 -55.567523 -15.423809 -16.034827 48.790613 -46.314669 7.157424 6.560461 -69.779398 -68.937673 -42.093151 -103.787723 -30.098574 59.722163 14.651821 117.634422 -43.727711 158.561189 -17.689871 -8.336109 35.342004 -13.049014 39.366082 22.403850 -6.211926 -11.288541 -15.666789 -14.016950 37.240295 37.243533 -33.131793 48.368859 -9.350176 -31.700400 13.002263 -64.323641 -48.318237 46.725396 54.024846 52.513831 17.140665 23.642160 17.070169 13.959502 112.737613 103.785510 -83.307455 38.525576
-24.102976 47.381062 -15.240369 28.352937 49.073741 158.786544 21.941143 76.719991 80.114936 6.821417 -0.346193 -92.339479 1.816825 6.253659 -32.491671 -44.483926 -56.335038 -16.037805 -14.736973 42.695653 -46.455651 8.885864 3.463234 -67.932795 -71.454113 -47.233343 -107.010923 -25.809960 61.591094 19.328373 116.767370 -31.970309 168.844831 -12.916480 3.156068 41.513589 -13.302655 34.179950 23.247148 -4.423037 -10.261802 -17.002497 -13.394894 38.252505 37.223158 -31.203528 44.861048 -9.239199 -32.913066 12.038832 -62.497481 -50.540282 45.446351 52.570842 52.318296 19.389229 21.238533 15.195216 16.556910 110.716342 100.870399 -83.141489 35.238862
